<svg width="16" height="16" viewBox="0 0 16 16" fill="none" xmlns="http://www.w3.org/2000/svg">
  <mask id="cut" maskUnits="userSpaceOnUse" x="0" y="0" width="16" height="16">
    <rect width="16" height="16" fill="#fff"/>
    <path d="M4.6 8.2h6.8M4.6 10.9h6.8" stroke="#000" stroke-width="1.3" stroke-linecap="round"/>
    <path d="M11.9 1.9v3M10.4 3.4h3" stroke="#000" stroke-width="3.4" stroke-linecap="round"/>
  </mask>
  <path mask="url(#cut)" fill="#6e6e6e" d="M2.2 3a.8.8 0 0 0-.8.8v8.4a.8.8 0 0 0 .8.8h11.6a.8.8 0 0 0 .8-.8V5.6a.8.8 0 0 0-.8-.8H7.6L6.2 3H2.2z"/>
  <path d="M11.9 1.9v3M10.4 3.4h3" stroke="#6e6e6e" stroke-width="1.4" stroke-linecap="round" fill="none"/>
</svg>
